<svg width="240" height="37" viewBox="0 0 240 37" fill="none" xmlns="http://www.w3.org/2000/svg">
<path d="M4.80492 27.08C4.73292 27.416 4.64892 27.74 4.55292 28.052C4.48092 28.364 4.44492 28.628 4.44492 28.844C4.44492 29.396 4.73292 29.72 5.30892 29.816C5.90892 29.888 6.70092 29.924 7.68492 29.924L7.03692 32.984C6.12492 32.984 5.27292 32.96 4.48092 32.912C3.68892 32.864 2.99292 32.744 2.39292 32.552C1.81692 32.36 1.36092 32.06 1.02492 31.652C0.688922 31.268 0.520922 30.728 0.520922 30.032C0.520922 29.816 0.532922 29.552 0.556922 29.24C0.604922 28.904 0.652922 28.604 0.700922 28.34L1.81692 23.264C1.86492 23.072 1.90092 22.868 1.92492 22.652C1.94892 22.412 1.96092 22.208 1.96092 22.04C1.96092 21.488 1.78092 21.032 1.42092 20.672C1.06092 20.288 0.640922 20.06 0.160922 19.988L0.736922 17.288C1.45692 17.12 2.08092 16.832 2.60892 16.424C3.13692 16.016 3.50892 15.308 3.72492 14.3L4.80492 9.188C5.04492 8.084 5.40492 7.232 5.88492 6.632C6.38892 6.008 6.98892 5.552 7.68492 5.264C8.38092 4.952 9.16092 4.76 10.0249 4.688C10.9129 4.616 11.8609 4.58 12.8689 4.58L12.2209 7.64C11.6689 7.64 11.1769 7.652 10.7449 7.676C10.3369 7.7 9.98892 7.772 9.70092 7.892C9.41292 7.988 9.18492 8.156 9.01692 8.396C8.84892 8.636 8.71692 8.96 8.62092 9.368L7.46892 14.624C7.32492 15.296 7.16892 15.86 7.00092 16.316C6.85692 16.772 6.68892 17.156 6.49692 17.468C6.30492 17.78 6.07692 18.044 5.81292 18.26C5.57292 18.476 5.27292 18.668 4.91292 18.836C5.15292 19.028 5.38092 19.304 5.59692 19.664C5.81292 20.024 5.92092 20.516 5.92092 21.14C5.92092 21.428 5.89692 21.74 5.84892 22.076C5.80092 22.388 5.74092 22.7 5.66892 23.012L4.80492 27.08ZM30.0716 28.556C29.4716 28.844 28.8476 29.132 28.1996 29.42C27.5756 29.684 26.9036 29.924 26.1836 30.14C25.4636 30.332 24.6716 30.488 23.8076 30.608C22.9676 30.728 22.0436 30.788 21.0356 30.788C17.8196 30.788 15.3356 30.068 13.5836 28.628C11.8556 27.188 10.9916 24.788 10.9916 21.428C10.9916 19.484 11.2916 17.66 11.8916 15.956C12.4916 14.228 13.3796 12.728 14.5556 11.456C15.7316 10.16 17.1836 9.14 18.9116 8.396C20.6396 7.652 22.6196 7.28 24.8516 7.28C25.9076 7.28 26.8676 7.352 27.7316 7.496C28.6196 7.64 29.4116 7.832 30.1076 8.072C30.8276 8.288 31.4636 8.528 32.0156 8.792C32.5916 9.056 33.1076 9.308 33.5636 9.548L32.2676 16.244H25.7876C25.8116 16.004 25.8356 15.692 25.8596 15.308C25.9076 14.924 25.9436 14.54 25.9676 14.156C25.9916 13.748 26.0156 13.352 26.0396 12.968C26.0636 12.584 26.0756 12.26 26.0756 11.996C26.0756 11.804 26.0636 11.588 26.0396 11.348C26.0156 11.084 25.9556 10.832 25.8596 10.592C25.7636 10.352 25.6076 10.16 25.3916 10.016C25.1996 9.848 24.9356 9.764 24.5996 9.764C23.9756 9.764 23.3996 10.028 22.8716 10.556C22.3676 11.06 21.9116 11.744 21.5036 12.608C21.0956 13.448 20.7356 14.408 20.4236 15.488C20.1116 16.568 19.8476 17.672 19.6316 18.8C19.4396 19.904 19.2836 20.996 19.1636 22.076C19.0676 23.156 19.0196 24.104 19.0196 24.92C19.0196 25.16 19.0316 25.46 19.0556 25.82C19.0796 26.18 19.1516 26.528 19.2716 26.864C19.3916 27.2 19.5716 27.488 19.8116 27.728C20.0756 27.968 20.4236 28.088 20.8556 28.088C21.5996 28.088 22.3196 27.632 23.0156 26.72C23.7116 25.784 24.3236 24.128 24.8516 21.752H31.5116L30.0716 28.556ZM44.0998 14.624C46.9558 14.624 49.0318 15.128 50.3278 16.136C51.6958 17.192 52.3798 18.944 52.3798 21.392C52.3798 22.904 52.1278 24.272 51.6238 25.496C51.1198 26.696 50.4118 27.692 49.4998 28.484C47.6758 30.02 45.0358 30.788 41.5798 30.788C38.6278 30.788 36.5158 30.224 35.2438 29.096C33.8758 27.92 33.1918 26.156 33.1918 23.804C33.1918 22.244 33.5038 20.828 34.1278 19.556C34.7758 18.284 35.6998 17.228 36.8998 16.388C38.6518 15.212 41.0518 14.624 44.0998 14.624ZM41.6518 28.34C42.2518 28.34 42.7678 28.004 43.1998 27.332C43.6558 26.66 44.0158 25.844 44.2798 24.884C44.5438 23.9 44.7358 22.892 44.8558 21.86C44.9998 20.804 45.0718 19.892 45.0718 19.124C45.0718 18.452 44.9998 17.948 44.8558 17.612C44.7358 17.252 44.4598 17.072 44.0278 17.072C43.3798 17.072 42.8158 17.42 42.3358 18.116C41.8798 18.812 41.5078 19.64 41.2198 20.6C40.9318 21.56 40.7158 22.544 40.5718 23.552C40.4518 24.56 40.3918 25.376 40.3918 26C40.3918 27.56 40.8118 28.34 41.6518 28.34ZM68.4428 6.308H75.8228L70.6748 30.5H64.8428L64.1948 28.196H63.9428C63.7988 28.412 63.5708 28.676 63.2588 28.988C62.9708 29.276 62.5988 29.564 62.1428 29.852C61.6868 30.116 61.1468 30.332 60.5228 30.5C59.8988 30.692 59.1788 30.788 58.3628 30.788C57.5228 30.788 56.8028 30.668 56.2028 30.428C55.6268 30.164 55.1468 29.816 54.7628 29.384C54.4028 28.952 54.1388 28.436 53.9708 27.836C53.8028 27.212 53.7188 26.54 53.7188 25.82C53.7188 25.508 53.7428 25.016 53.7908 24.344C53.8388 23.648 53.9468 22.892 54.1148 22.076C54.3068 21.236 54.5708 20.384 54.9068 19.52C55.2668 18.632 55.7348 17.828 56.3108 17.108C56.9108 16.388 57.6428 15.8 58.5068 15.344C59.3708 14.864 60.4148 14.624 61.6388 14.624C62.0228 14.624 62.4308 14.66 62.8628 14.732C63.2948 14.804 63.7028 14.936 64.0868 15.128C64.4948 15.32 64.8548 15.596 65.1668 15.956C65.4788 16.316 65.7068 16.784 65.8508 17.36H66.1028L68.4428 6.308ZM64.0508 18.152C63.4748 18.152 62.9948 18.476 62.6108 19.124C62.2268 19.748 61.9148 20.48 61.6748 21.32C61.4348 22.16 61.2548 23 61.1348 23.84C61.0388 24.68 60.9908 25.304 60.9908 25.712C60.9908 26.192 61.0628 26.6 61.2068 26.936C61.3508 27.248 61.6268 27.404 62.0348 27.404C62.2748 27.404 62.5028 27.356 62.7188 27.26C62.9588 27.14 63.1748 27.008 63.3668 26.864C63.5828 26.696 63.7628 26.528 63.9068 26.36C64.0508 26.192 64.1708 26.048 64.2668 25.928L65.6708 19.376C65.5028 19.112 65.2748 18.848 64.9868 18.584C64.7228 18.296 64.4108 18.152 64.0508 18.152ZM82.0921 23.264C81.9961 23.792 81.9241 24.296 81.8761 24.776C81.8521 25.256 81.8401 25.688 81.8401 26.072C81.8401 26.288 81.8521 26.528 81.8761 26.792C81.9001 27.056 81.9481 27.308 82.0201 27.548C82.1161 27.764 82.2361 27.956 82.3801 28.124C82.5481 28.268 82.7761 28.34 83.0641 28.34C83.2801 28.34 83.5201 28.268 83.7841 28.124C84.0721 27.98 84.3481 27.776 84.6121 27.512C84.9001 27.248 85.1641 26.924 85.4041 26.54C85.6681 26.156 85.8721 25.724 86.0161 25.244H91.9201L90.9841 29.096C90.5041 29.408 89.9521 29.672 89.3281 29.888C88.7041 30.104 88.0441 30.284 87.3481 30.428C86.6521 30.548 85.9441 30.632 85.2241 30.68C84.5041 30.752 83.8201 30.788 83.1721 30.788C81.9721 30.788 80.8561 30.68 79.8241 30.464C78.7921 30.248 77.8921 29.876 77.1241 29.348C76.3561 28.82 75.7441 28.124 75.2881 27.26C74.8561 26.372 74.6401 25.28 74.6401 23.984C74.6401 22.808 74.8201 21.656 75.1801 20.528C75.5641 19.4 76.1881 18.404 77.0521 17.54C77.9401 16.652 79.1161 15.944 80.5801 15.416C82.0681 14.888 83.9161 14.624 86.1241 14.624C88.5241 14.624 90.3241 14.996 91.5241 15.74C92.7481 16.484 93.3601 17.648 93.3601 19.232C93.3601 19.88 93.2641 20.588 93.0721 21.356C92.8801 22.1 92.5921 22.736 92.2081 23.264H82.0921ZM86.8801 18.98C86.8801 18.236 86.7601 17.732 86.5201 17.468C86.2801 17.204 85.9921 17.072 85.6561 17.072C85.2721 17.072 84.9121 17.204 84.5761 17.468C84.2641 17.708 83.9761 18.044 83.7121 18.476C83.4481 18.884 83.2081 19.364 82.9921 19.916C82.7761 20.444 82.5961 21.008 82.4521 21.608H86.5561C86.6041 21.32 86.6521 21.02 86.7001 20.708C86.7481 20.444 86.7841 20.156 86.8081 19.844C86.8561 19.532 86.8801 19.244 86.8801 18.98ZM99.9796 32.984H92.3116L92.9236 29.924H96.7396L101.564 7.64H97.7476L98.3236 4.58H106.028L99.9796 32.984Z" fill="#6A57CD"/>
<path d="M129.637 8.356V30.5H126.725V13.988L119.365 30.5H117.317L109.925 13.956V30.5H107.013V8.356H110.149L118.341 26.66L126.533 8.356H129.637ZM133.487 21.668C133.487 19.876 133.85 18.308 134.575 16.964C135.301 15.5987 136.293 14.5427 137.551 13.796C138.831 13.0493 140.25 12.676 141.807 12.676C143.343 12.676 144.677 13.0067 145.807 13.668C146.938 14.3293 147.781 15.1613 148.335 16.164V12.964H151.279V30.5H148.335V27.236C147.759 28.26 146.895 29.1133 145.743 29.796C144.613 30.4573 143.29 30.788 141.775 30.788C140.218 30.788 138.81 30.404 137.551 29.636C136.293 28.868 135.301 27.7907 134.575 26.404C133.85 25.0173 133.487 23.4387 133.487 21.668ZM148.335 21.7C148.335 20.3773 148.069 19.2253 147.535 18.244C147.002 17.2627 146.277 16.516 145.359 16.004C144.463 15.4707 143.471 15.204 142.383 15.204C141.295 15.204 140.303 15.46 139.407 15.972C138.511 16.484 137.797 17.2307 137.263 18.212C136.73 19.1933 136.463 20.3453 136.463 21.668C136.463 23.012 136.73 24.1853 137.263 25.188C137.797 26.1693 138.511 26.9267 139.407 27.46C140.303 27.972 141.295 28.228 142.383 28.228C143.471 28.228 144.463 27.972 145.359 27.46C146.277 26.9267 147.002 26.1693 147.535 25.188C148.069 24.1853 148.335 23.0227 148.335 21.7ZM162.408 30.788C161.064 30.788 159.859 30.564 158.792 30.116C157.726 29.6467 156.883 29.0067 156.264 28.196C155.646 27.364 155.304 26.4147 155.24 25.348H158.248C158.334 26.2227 158.739 26.9373 159.464 27.492C160.211 28.0467 161.182 28.324 162.376 28.324C163.486 28.324 164.36 28.0787 165 27.588C165.64 27.0973 165.96 26.4787 165.96 25.732C165.96 24.964 165.619 24.3987 164.936 24.036C164.254 23.652 163.198 23.2787 161.768 22.916C160.467 22.5747 159.4 22.2333 158.568 21.892C157.758 21.5293 157.054 21.0067 156.456 20.324C155.88 19.62 155.592 18.7027 155.592 17.572C155.592 16.676 155.859 15.8547 156.392 15.108C156.926 14.3613 157.683 13.7747 158.664 13.348C159.646 12.9 160.766 12.676 162.024 12.676C163.966 12.676 165.534 13.1667 166.728 14.148C167.923 15.1293 168.563 16.4733 168.648 18.18H165.736C165.672 17.2627 165.299 16.5267 164.616 15.972C163.955 15.4173 163.059 15.14 161.928 15.14C160.883 15.14 160.051 15.364 159.432 15.812C158.814 16.26 158.504 16.8467 158.504 17.572C158.504 18.148 158.686 18.628 159.048 19.012C159.432 19.3747 159.902 19.6733 160.456 19.908C161.032 20.1213 161.822 20.3667 162.824 20.644C164.083 20.9853 165.107 21.3267 165.896 21.668C166.686 21.988 167.358 22.4787 167.912 23.14C168.488 23.8013 168.787 24.6653 168.808 25.732C168.808 26.692 168.542 27.556 168.008 28.324C167.475 29.092 166.718 29.7 165.736 30.148C164.776 30.5747 163.667 30.788 162.408 30.788ZM176.471 15.364V25.7C176.471 26.5533 176.652 27.1613 177.015 27.524C177.378 27.8653 178.007 28.036 178.903 28.036H181.047V30.5H178.423C176.802 30.5 175.586 30.1267 174.775 29.38C173.964 28.6333 173.559 27.4067 173.559 25.7V15.364H171.287V12.964H173.559V8.548H176.471V12.964H181.047V15.364H176.471ZM200.575 21.06C200.575 21.6147 200.543 22.2013 200.479 22.82H186.463C186.57 24.548 187.157 25.9027 188.223 26.884C189.311 27.844 190.623 28.324 192.159 28.324C193.418 28.324 194.463 28.036 195.295 27.46C196.149 26.8627 196.746 26.0733 197.087 25.092H200.223C199.754 26.7773 198.815 28.1533 197.407 29.22C195.999 30.2653 194.25 30.788 192.159 30.788C190.495 30.788 189.002 30.4147 187.679 29.668C186.378 28.9213 185.354 27.8653 184.607 26.5C183.861 25.1133 183.487 23.5133 183.487 21.7C183.487 19.8867 183.85 18.2973 184.575 16.932C185.301 15.5667 186.314 14.5213 187.615 13.796C188.938 13.0493 190.453 12.676 192.159 12.676C193.823 12.676 195.295 13.0387 196.575 13.764C197.855 14.4893 198.837 15.492 199.519 16.772C200.223 18.0307 200.575 19.46 200.575 21.06ZM197.567 20.452C197.567 19.3427 197.322 18.3933 196.831 17.604C196.341 16.7933 195.669 16.1853 194.815 15.78C193.983 15.3533 193.055 15.14 192.031 15.14C190.559 15.14 189.301 15.6093 188.255 16.548C187.231 17.4867 186.645 18.788 186.495 20.452H197.567ZM207.331 15.812C207.843 14.8093 208.568 14.0307 209.507 13.476C210.467 12.9213 211.63 12.644 212.995 12.644V15.652H212.227C208.963 15.652 207.331 17.4227 207.331 20.964V30.5H204.419V12.964H207.331V15.812ZM223.845 36.452C221.797 34.4467 220.197 31.8973 219.045 28.804C217.914 25.7107 217.349 22.372 217.349 18.788C217.349 15.1187 217.946 11.6947 219.141 8.516C220.357 5.316 222.085 2.68133 224.325 0.612H227.365V0.899998C224.975 3.14 223.173 5.83867 221.957 8.996C220.762 12.132 220.165 15.396 220.165 18.788C220.165 22.0947 220.73 25.252 221.861 28.26C223.013 31.268 224.687 33.9027 226.885 36.164V36.452H223.845ZM229.96 36.452V36.164C232.157 33.9027 233.821 31.268 234.952 28.26C236.104 25.252 236.68 22.0947 236.68 18.788C236.68 15.396 236.072 12.132 234.856 8.996C233.661 5.83867 231.869 3.14 229.48 0.899998V0.612H232.52C234.76 2.68133 236.477 5.316 237.672 8.516C238.888 11.6947 239.496 15.1187 239.496 18.788C239.496 22.372 238.92 25.7107 237.768 28.804C236.637 31.8973 235.048 34.4467 233 36.452H229.96Z" fill="white"/>
</svg>
